<svg height="512" viewBox="0 0 64 64" width="512" xmlns="http://www.w3.org/2000/svg" xmlns:xlink="http://www.w3.org/1999/xlink"><linearGradient id="New_Gradient_Swatch_1" gradientUnits="userSpaceOnUse" x1="32" x2="32" y1=".464" y2="65.027"><stop offset="0" stop-color="#fff33b"/><stop offset=".014" stop-color="#fee72e"/><stop offset=".042" stop-color="#fed51b"/><stop offset=".07" stop-color="#fdca10"/><stop offset=".1" stop-color="#fdc70c"/><stop offset=".4" stop-color="#f3903f"/><stop offset=".8" stop-color="#ed683c"/><stop offset="1" stop-color="#e93e3a"/></linearGradient><linearGradient id="New_Gradient_Swatch_1-4" x1="20" x2="20" xlink:href="#New_Gradient_Swatch_1" y1=".464" y2="65.027"/><linearGradient id="New_Gradient_Swatch_1-5" x1="46" x2="46" xlink:href="#New_Gradient_Swatch_1" y1=".464" y2="65.027"/><g id="Music_note" data-name="Music note"><g fill="url(#New_Gradient_Swatch_1)"><path d="m48.5 26.867a1 1 0 0 0 .5-.867v-4a1 1 0 0 0 -.47-.848l-16-10a1 1 0 0 0 -1.53.848v25.755a16.388 16.388 0 0 0 -5-.755c-6.168 0-11 3.075-11 7s4.832 7 11 7 11-3.075 11-7v-23.259l10.5 6.123a1 1 0 0 0 1 .003zm-1.5-2.608-10.5-6.123a1 1 0 0 0 -1.5.864v25c0 2.71-4.122 5-9 5s-9-2.29-9-5 4.122-5 9-5a13.69 13.69 0 0 1 5.588 1.119 1 1 0 0 0 1.412-.911v-25.4l14 8.75z"/><path d="m32 2a30 30 0 1 0 30 30 30.034 30.034 0 0 0 -30-30zm0 58a28 28 0 1 1 28-28 28.032 28.032 0 0 1 -28 28z"/><path d="m32 6a26 26 0 1 0 26 26 26.029 26.029 0 0 0 -26-26zm0 50a24 24 0 1 1 24-24 24.028 24.028 0 0 1 -24 24z"/></g><path d="m19 29v-5.22l6-1.5v1.9a2.966 2.966 0 0 0 -1-.18 3 3 0 1 0 3 3v-10a1 1 0 0 0 -1.243-.97l-8 2a1 1 0 0 0 -.757.97v7.184a2.966 2.966 0 0 0 -1-.184 3 3 0 1 0 3 3zm5-1a1 1 0 1 1 1-1 1 1 0 0 1 -1 1zm1-9.719v1.939l-6 1.5v-1.939zm-10 10.719a1 1 0 1 1 1 1 1 1 0 0 1 -1-1z" fill="url(#New_Gradient_Swatch_1-4)"/><path d="m52.615 29.212a.991.991 0 0 0 -.858-.182l-8 2a1 1 0 0 0 -.757.97v7.184a2.966 2.966 0 0 0 -1-.184 3 3 0 1 0 3 3v-5.22l6-1.5v1.9a2.966 2.966 0 0 0 -1-.18 3 3 0 1 0 3 3v-10a1 1 0 0 0 -.385-.788zm-10.615 13.788a1 1 0 1 1 1-1 1 1 0 0 1 -1 1zm3-8.28v-1.939l6-1.5v1.939zm5 6.28a1 1 0 1 1 1-1 1 1 0 0 1 -1 1z" fill="url(#New_Gradient_Swatch_1-5)"/></g></svg>