<svg id="Layer_1" height="512" viewBox="0 0 128 128" width="512" xmlns="http://www.w3.org/2000/svg" xmlns:xlink="http://www.w3.org/1999/xlink" data-name="Layer 1"><linearGradient id="linear-gradient" gradientUnits="userSpaceOnUse" x1="99.105" x2="28.895" y1="108.347" y2="38.138"><stop offset="0" stop-color="#20c6c5"/><stop offset="1" stop-color="#fb642b"/></linearGradient><path d="m113.618 58.26-13.223 10.982a1.751 1.751 0 0 1 -2.335-.089l-5.81-5.623v50.946a1.75 1.75 0 0 1 -1.75 1.75h-53a1.75 1.75 0 0 1 -1.75-1.75v-27.288a1.75 1.75 0 0 1 3.5 0v25.539h49.5v-53.327a1.75 1.75 0 0 1 2.967-1.258l7.648 7.4 10.682-8.871-1.293-1.584-7.372 6.1a1.75 1.75 0 0 1 -2.232-2.7l7.392-6.12-7.634-9.352a19.048 19.048 0 0 0 -14.808-7.015 1.75 1.75 0 0 1 0-3.5 22.531 22.531 0 0 1 17.522 8.316l8.717 10.684v.006l3.508 4.3a1.75 1.75 0 0 1 -.229 2.454zm-76.118 20.49a1.75 1.75 0 0 0 -1.75 1.75v.625a1.75 1.75 0 0 0 3.5 0v-.625a1.75 1.75 0 0 0 -1.75-1.75zm-1.75-15.22-5.809 5.623a1.754 1.754 0 0 1 -2.335.089l-13.224-10.982a1.75 1.75 0 0 1 -.237-2.453l3.506-4.295.005-.008.006-.006 8.72-10.682a22.535 22.535 0 0 1 17.518-8.316h7.821l10.529-6.942v-1.452a5.237 5.237 0 0 1 2.771-4.671 2.218 2.218 0 0 0 1.122-2.5 2.167 2.167 0 0 0 -1.6-1.6 2.214 2.214 0 0 0 -2.75 2.144 1.75 1.75 0 1 1 -3.5 0 5.708 5.708 0 0 1 11.262-1.321 5.747 5.747 0 0 1 -2.908 6.377 1.771 1.771 0 0 0 -.9 1.571v1.451l10.964 7.231a1.747 1.747 0 0 1 .789 1.462 13.388 13.388 0 0 1 -1.366 5.925 1.75 1.75 0 1 1 -3.145-1.537 9.865 9.865 0 0 0 .844-2.638h-19.671a10.035 10.035 0 0 0 9.094 8.223c.248.019.5.027.745.027a1.75 1.75 0 0 1 0 3.5q-.506 0-1-.037a13.543 13.543 0 0 1 -12.373-11.713h-6.728a19.05 19.05 0 0 0 -14.812 7.029l-7.633 9.352 11.2 9.272 3.625-3.509a1.75 1.75 0 0 1 2.97 1.256v14.963a1.75 1.75 0 0 1 -3.5 0zm22.332-31.03h11.836l-5.918-3.9zm-27.955 31.6-10.881-9.008-1.293 1.584 10.681 8.871zm41.4-18.643q.3-.205.6-.426a1.75 1.75 0 0 0 -2.107-2.795q-.22.166-.446.318a1.75 1.75 0 0 0 1.957 2.9zm-1.277 24.543v-11.25a1.75 1.75 0 0 1 1.75-1.75h11.25a1.75 1.75 0 0 1 1.75 1.75v11.25a1.749 1.749 0 0 1 -.909 1.534l-5.625 3.083a1.746 1.746 0 0 1 -1.682 0l-5.625-3.083a1.749 1.749 0 0 1 -.909-1.534zm3.5-1.036 3.875 2.123 3.875-2.123v-8.464h-7.75z" fill="url(#linear-gradient)"/></svg>